HIERARCHY
ROOT Hips
{
 OFFSET 0.000000 0.000000 0.000000
 CHANNELS 6 Xposition Yposition Zposition Yrotation Xrotation Zrotation
 JOINT Chest
 {
  OFFSET 0.000000 9.581000 -0.001100
  CHANNELS 3 Yrotation Xrotation Zrotation
  JOINT Chest2
  {
   OFFSET 0.000000 9.561100 0.002200
   CHANNELS 3 Yrotation Xrotation Zrotation
   JOINT Chest3
   {
    OFFSET 0.000000 9.521100 0.000000
    CHANNELS 3 Yrotation Xrotation Zrotation
    JOINT Chest4
    {
     OFFSET 0.000000 9.511400 0.000000
     CHANNELS 3 Yrotation Xrotation Zrotation
     JOINT Neck
     {
      OFFSET 0.000000 14.375100 0.000000
      CHANNELS 3 Yrotation Xrotation Zrotation
      JOINT Head
      {
       OFFSET 0.000000 8.901200 0.004600
       CHANNELS 3 Yrotation Xrotation Zrotation
       End Site
       {
        OFFSET 0.000000 16.962200 0.002400
       }
      }
     }
     JOINT RightCollar
     {
      OFFSET -2.920100 9.518800 0.000000
      CHANNELS 3 Yrotation Xrotation Zrotation
      JOINT RightShoulder
      {
       OFFSET -13.664500 0.000000 0.000000
       CHANNELS 3 Yrotation Xrotation Zrotation
       JOINT RightElbow
       {
        OFFSET 0.000000 -29.999200 0.000000
        CHANNELS 3 Yrotation Xrotation Zrotation
        JOINT RightWrist
        {
         OFFSET 0.000000 -24.253600 0.000000
         CHANNELS 3 Yrotation Xrotation Zrotation
         End Site
         {
          OFFSET 0.000000 -17.918900 0.000000
         }
        }
       }
      }
     }
     JOINT LeftCollar
     {
      OFFSET 2.920100 9.518800 0.000000
      CHANNELS 3 Yrotation Xrotation Zrotation
      JOINT LeftShoulder
      {
       OFFSET 13.664500 0.000000 0.000000
       CHANNELS 3 Yrotation Xrotation Zrotation
       JOINT LeftElbow
       {
        OFFSET 0.000000 -29.999200 0.000000
        CHANNELS 3 Yrotation Xrotation Zrotation
        JOINT LeftWrist
        {
         OFFSET 0.000000 -24.253600 0.000000
         CHANNELS 3 Yrotation Xrotation Zrotation
         End Site
         {
          OFFSET 0.000000 -17.918900 0.000000
         }
        }
       }
      }
     }
    }
   }
  }
 }
 JOINT RightHip
 {
  OFFSET -7.797300 0.005300 0.000500
  CHANNELS 3 Yrotation Xrotation Zrotation
  JOINT RightKnee
  {
   OFFSET 0.000000 -40.663400 -0.000500
   CHANNELS 3 Yrotation Xrotation Zrotation
   JOINT RightAnkle
   {
    OFFSET 0.000000 -39.523700 -0.000900
    CHANNELS 3 Yrotation Xrotation Zrotation
    JOINT RightToe
    {
     OFFSET 0.000000 -6.418000 14.485300
     CHANNELS 3 Yrotation Xrotation Zrotation
     End Site
     {
      OFFSET 0.000000 -1.465200 6.326400
     }
    }
   }
  }
 }
 JOINT LeftHip
 {
  OFFSET 7.797300 0.005300 0.000500
  CHANNELS 3 Yrotation Xrotation Zrotation
  JOINT LeftKnee
  {
   OFFSET 0.000000 -40.663400 -0.000500
   CHANNELS 3 Yrotation Xrotation Zrotation
   JOINT LeftAnkle
   {
    OFFSET 0.000000 -39.523700 -0.000900
    CHANNELS 3 Yrotation Xrotation Zrotation
    JOINT LeftToe
    {
     OFFSET 0.000000 -6.418000 14.485300
     CHANNELS 3 Yrotation Xrotation Zrotation
     End Site
     {
      OFFSET 0.000000 -1.465200 6.326400
     }
    }
   }
  }
 }
}
MOTION
Frames: 9
Frame Time: 0.008333
-15.087329 126.913799 20.744321 -170.852904 -49.138479 -3.105758 -1.923570 26.454806 0.104307 -0.319337 4.455350 0.079956 -0.507226 7.082731 0.115342 -1.558263 21.688883 0.156136 1.798614 15.905325 -0.533513 2.002759 -9.024949 -0.965256 1.452145 2.153457 1.227600 2.975778 -8.744837 -10.082575 -99.422105 -65.530348 147.511605 9.407106 10.920656 -1.912345 -10.264690 -0.907555 -1.038882 -7.059529 -12.382564 12.328319 53.740411 -50.137004 -104.918491 3.653335 -10.621405 -5.288295 -4.968168 -23.231907 -2.405177 -4.498286 77.894928 -3.065299 10.914973 -11.058979 1.551694 -0.000341 -0.002689 -0.000151 7.367725 4.600077 2.878666 129.527455 65.324345 150.157644 4.214429 13.770632 5.694714 -0.000558 -0.000428 -0.000247
-15.087773 126.913868 20.743647 -170.855308 -49.131254 -3.106607 -1.921646 26.450892 0.106521 -0.319305 4.456139 0.079950 -0.512246 7.099488 0.114621 -1.559879 21.693092 0.155663 1.762972 15.776433 -0.491603 1.954615 -9.162957 -0.912715 1.459445 2.125982 1.206150 2.902070 -8.676401 -10.026670 -99.308814 -65.600208 147.382827 9.415955 10.925376 -1.903268 -10.271442 -0.911837 -1.025306 -7.003126 -12.357193 12.294669 53.707741 -50.165790 -104.819384 3.631411 -10.573689 -5.223049 -4.965600 -23.237229 -2.411354 -4.449317 77.892613 -3.019085 10.952656 -11.055007 1.556512 0.001464 -0.001232 0.000649 7.369822 4.594524 2.882857 129.526165 65.327174 150.158153 4.205944 13.766938 5.698024 -0.001691 -0.001027 -0.000749
-15.088003 126.913798 20.742899 -170.856364 -49.121940 -3.109810 -1.925357 26.458030 0.107888 -0.319829 4.458115 0.079747 -0.512893 7.101664 0.113958 -1.562547 21.696983 0.155589 1.727058 15.636729 -0.451779 1.906641 -9.311989 -0.862392 1.460149 2.098420 1.173177 2.834391 -8.609585 -9.958638 -99.171985 -65.668754 147.227514 9.424949 10.936457 -1.878366 -10.280594 -0.913257 -1.013723 -6.941038 -12.326639 12.259900 53.699330 -50.205080 -104.748040 3.602888 -10.514035 -5.132962 -4.966872 -23.244457 -2.405806 -4.446064 77.891507 -3.014347 10.944545 -11.055390 1.556879 0.001022 -0.001234 0.000453 7.369592 4.585575 2.890672 129.535452 65.330311 150.168620 4.196841 13.763271 5.697531 -0.000703 -0.000927 -0.000311
-15.088453 126.914085 20.741688 -170.856744 -49.114524 -3.112494 -1.928568 26.465300 0.107763 -0.327442 4.477222 0.076913 -0.503931 7.078141 0.116973 -1.571214 21.710679 0.154519 1.691873 15.486240 -0.414554 1.860065 -9.471904 -0.815041 1.455099 2.067312 1.132973 2.774399 -8.542472 -9.880714 -99.010167 -65.735353 147.043285 9.438441 10.958059 -1.839553 -10.279248 -0.925784 -1.007535 -6.909198 -12.309423 12.242693 53.690739 -50.214795 -104.640030 3.569582 -10.442486 -5.043688 -4.968740 -23.248716 -2.396015 -4.455143 77.891173 -3.017381 10.900736 -11.060238 1.554610 -0.001115 -0.001890 -0.000494 7.366911 4.579504 2.894965 129.542363 65.331690 150.174306 4.193444 13.761337 5.691078 -0.000364 0.000359 -0.000161
-15.089092 126.915148 20.739666 -170.856740 -49.112294 -3.114888 -1.941502 26.493678 0.099397 -0.318188 4.455160 0.080556 -0.503953 7.079910 0.116635 -1.582393 21.724316 0.154357 1.659832 15.324512 -0.382799 1.818086 -9.643066 -0.774164 1.461125 2.039448 1.114308 2.709406 -8.482021 -9.822480 -98.829962 -65.800377 146.837764 9.456438 10.995355 -1.789987 -10.275694 -0.938938 -1.003310 -6.876709 -12.289966 12.226183 53.688509 -50.222025 -104.526341 3.533906 -10.365382 -4.958012 -4.967635 -23.247516 -2.393224 -4.404816 77.889247 -2.972948 10.907583 -11.063039 1.560253 -0.000328 -0.001953 -0.000145 7.355454 4.580711 2.897483 129.552824 65.333840 150.175786 4.190940 13.763199 5.674645 -0.000071 0.002250 -0.000032
-15.089427 126.915206 20.738345 -170.854722 -49.101190 -3.119719 -1.947649 26.495494 0.100668 -0.317052 4.450816 0.079666 -0.510318 7.090881 0.115803 -1.583650 21.723598 0.154752 1.628749 15.156171 -0.356376 1.782784 -9.825823 -0.740848 1.468061 2.015827 1.098095 2.639099 -8.424045 -9.762887 -98.782712 -65.846672 146.816106 9.437286 11.107576 -1.785118 -10.291995 -0.937912 -0.991912 -6.803717 -12.236960 12.182514 53.714802 -50.271603 -104.455723 3.497236 -10.285827 -4.874114 -4.970540 -23.257179 -2.387172 -4.390477 77.889202 -2.960299 10.907083 -11.063569 1.561597 -0.000694 -0.002230 -0.000308 7.349522 4.571551 2.897957 129.540186 65.334718 150.164615 4.173922 13.761502 5.681561 0.001317 -0.002037 0.000584
-15.090016 126.914087 20.737987 -170.854482 -49.079988 -3.120772 -1.950206 26.478880 0.101735 -0.323780 4.466230 0.080001 -0.520625 7.108256 0.113727 -1.569123 21.692866 0.154391 1.595989 14.987833 -0.332959 1.754450 -10.018815 -0.713619 1.463784 1.995166 1.080397 2.571008 -8.355567 -9.697290 -98.602599 -65.926230 146.570816 9.491356 11.158861 -1.675836 -10.314618 -0.923535 -0.976694 -6.670156 -12.124353 12.096148 53.752325 -50.386686 -104.454493 3.457966 -10.202098 -4.787723 -4.967429 -23.278209 -2.382537 -4.404598 77.890102 -2.972065 10.907706 -11.065058 1.562240 -0.000392 -0.001866 -0.000174 7.344059 4.552861 2.894311 129.535429 65.330689 150.158199 4.160963 13.749889 5.691293 0.002341 -0.003155 0.001037
-15.090903 126.914636 20.736129 -170.853373 -49.071487 -3.122336 -1.958601 26.487754 0.097369 -0.325185 4.467023 0.079700 -0.521654 7.109452 0.114415 -1.577447 21.694125 0.150677 1.583705 14.795616 -0.315634 1.733096 -10.219625 -0.693088 1.471462 1.956446 1.068508 2.505672 -8.277160 -9.639229 -98.520916 -66.016885 146.408676 9.549644 11.224749 -1.550622 -10.322845 -0.921560 -0.948108 -6.579893 -12.070728 12.024708 53.769708 -50.450693 -104.387633 3.413303 -10.123183 -4.699631 -4.964309 -23.286960 -2.382277 -4.392937 77.891897 -2.966596 10.938359 -11.063820 1.566342 0.000721 -0.002332 0.000319 7.339142 4.546943 2.893326 129.533835 65.329016 150.153014 4.153008 13.747577 5.682909 0.002334 -0.003636 0.001034
-15.091234 126.913968 20.735227 -170.852666 -49.052878 -3.126402 -1.965101 26.487970 0.097564 -0.326163 4.467820 0.079532 -0.525193 7.113268 0.115776 -1.581630 21.692249 0.146754 1.577023 14.594596 -0.300880 1.717735 -10.426691 -0.679164 1.487991 1.906557 1.065558 2.465927 -8.217037 -9.614123 -98.510412 -66.096004 146.292566 9.604373 11.320368 -1.445676 -10.334615 -0.915533 -0.920732 -6.487085 -12.021974 11.956952 53.786043 -50.518305 -104.324873 3.363701 -10.061781 -4.612159 -4.962202 -23.305855 -2.372021 -4.417834 77.893616 -2.993936 10.941389 -11.064640 1.570083 0.000149 -0.002535 0.000066 7.336025 4.529861 2.893853 129.541393 65.325386 150.160230 4.148398 13.740273 5.679494 0.005875 -0.003022 0.002603
